<svg xmlns="http://www.w3.org/2000/svg" viewBox="0 0 697.6 117.66"><defs><style>.cls-1{fill:#fff;}</style></defs><g id="Layer_2" data-name="Layer 2"><g id="Layer_1-2" data-name="Layer 1"><path id="l3" class="cls-1" d="M301.17,7.77c4.6,2.38,7.77,8.24,7.77,16.65V75.48c0,5.87-.63,8.88-1.74,9-1.43.32-3.17-1-5.23-4L245,4.6h-27l.64.16c2.53,0,15.06,4.28,15.06,25.69V95.14c0,11.58-6.18,16.65-11.42,18.87-4,1.75-5.23,1.75-6,1.75H253l-1.91-.32c-4.44-1-15.54-4.92-15.54-20.14V30.45a15.7,15.7,0,0,1,.64-5.08c1.11-3,2.7-3,5.07-.16l68,90.55,1.27,1.9h.16V24.42c0-8.41,3.17-14.27,7.61-16.65s6.82-2.86,9.36-3h-36C294.36,4.91,296.73,5.39,301.17,7.77Z"/><path id="l6" class="cls-1" d="M620.7,7.77c4.6,2.38,7.77,8.24,7.77,16.65V75.48c0,5.87-.64,8.88-1.75,9-1.42.32-3.17-1-5.23-4L564.56,4.6H537.61l.63.16c2.54,0,15.06,4.28,15.06,25.69V95.14c0,11.58-6.18,16.65-11.41,18.87-4,1.75-5.24,1.75-6,1.75h36.63l-1.9-.32c-4.44-1-15.54-4.92-15.54-20.14V30.45a16,16,0,0,1,.63-5.08c1.11-3,2.7-3,5.08-.16l68,90.55,1.27,1.9h.16V24.42c0-8.41,3.17-14.27,7.61-16.65s6.82-2.86,9.36-3h-36C613.88,4.91,616.26,5.39,620.7,7.77Z"/><path id="l7" class="cls-1" d="M683.33,102.28v-84c0-6.18,2.7-10.3,6.5-11.73s5.87-1.74,7.77-1.74H654.47c1.9,0,3.81.31,7.61,1.74s6.5,5.55,6.5,11.73v84.05c0,5.87-2.69,10.31-6.5,11.73s-5.71,1.75-7.61,1.75H697.6C695.7,115.76,683.33,115.28,683.33,102.28Z"/><g id="l2"><path class="cls-1" d="M153,24.66c16.64.17,30.13-5.23,40.43-15.85,1.27-1.3,2.46-2.66,3.57-4.05H186.86a43.68,43.68,0,0,1-2.12,3.88c-6,10-15.38,14.27-28.22,13.17-10.71-.78-19.73-6.56-27.4-17H110.75a2.94,2.94,0,0,0,.26.39C119.41,16.73,134.48,24.66,153,24.66Z"/><path class="cls-1" d="M198.06,55.4C190.28,44,175.87,36.69,157.62,36.69c-16.65,0-30.6,5.07-41.7,15.21S99.1,75.54,99,92.51a60.19,60.19,0,0,0,3.91,23.25h18.08a77.44,77.44,0,0,1-5.17-24.69q-1.2-24,9-38c6.81-9.36,16-14,27.73-13.64,11.11,0,20.46,5.23,27.92,15.87s11.57,23.45,12,38.69a95.93,95.93,0,0,1-1,21.82h14a65.61,65.61,0,0,0,4-21.36A63.09,63.09,0,0,0,198.06,55.4Z"/></g><path id="l4" class="cls-1" d="M391.4,101.64V6.5h5.71c10.62,0,19.18,3.17,25.68,9.36A47.82,47.82,0,0,1,433.58,31.4L429.45,4.76h-92l-4.6,27,1.27-2.53a56.29,56.29,0,0,1,10.15-13C351.12,9.67,359.68,6.5,370,6.5h6.66v95.14c0,6.35-2.85,10.63-6.82,12.37-4,1.43-5.87,1.75-7.93,1.75h44.4c-2.06,0-4.12-.32-8.08-1.75C394.25,112.27,391.4,108,391.4,101.64Z"/><path id="l5" class="cls-1" d="M515.32,102,476.15,1.43,475.68,0,437.94,97c-4.44,11.58-11.1,18.24-18.55,18.72h31.39c-11.41-.8-15.06-8.56-10.77-18.23l22.35-58.68c3-8.08,5.23-12,6.66-12s3.33,3,5.55,8.87l23.63,65.66c2.53,5.07.31,8.72-1.11,10.78a8.18,8.18,0,0,1-3.65,2.38c-3.17,1.11-4,1.27-4.75,1.27h42.49c-2.7-.16-5.07-.32-10-4.76A26.41,26.41,0,0,1,515.32,102Z"/><g id="l1"><path class="cls-1" d="M81.51,4.75H0c.35,0,.69,0,1.05,0h0L42.24,6.38c11.32.25,19.43,2,23.09,3.76a50.84,50.84,0,0,1,7.29,4A46.57,46.57,0,0,1,82,22.83c3.18,3.65,4.92,6.34,5.39,7.77Z"/><path class="cls-1" d="M57.87,48A22.24,22.24,0,0,1,39.48,58.11,20.55,20.55,0,0,1,58.36,69.62c2,3.64,2.21,4.75,2.37,5.54V41.71l-.47,1.58A21.17,21.17,0,0,1,57.87,48Z"/><polygon class="cls-1" points="39.47 58.11 39.48 58.11 39.47 58.11 39.47 58.11"/><path class="cls-1" d="M28.23,103.38V72.62c-12-5.82-14.48-21.1-14.72-22.84l0-.16v53.76c0,5.56-2.55,9.37-6.19,10.79-3.64,1.27-5.39,1.59-7.29,1.59H41.87A19.83,19.83,0,0,1,34.41,114C30.76,112.59,28.23,108.94,28.23,103.38Z"/></g></g></g></svg>